<?xml version="1.0" encoding="utf-8"?>
<!-- Generator: Adobe Illustrator 23.0.5, SVG Export Plug-In . SVG Version: 6.00 Build 0)  -->
<svg version="1.1" id="Capa_1" xmlns="http://www.w3.org/2000/svg" xmlns:xlink="http://www.w3.org/1999/xlink" x="0px" y="0px"
	 viewBox="0 0 259 71.4" style="enable-background:new 0 0 259 71.4;" xml:space="preserve">
<style type="text/css">
	.st0{fill:url(#SVGID_1_);}
	.st1{fill:url(#SVGID_2_);}
	.st2{fill:url(#SVGID_3_);}
</style>
<g id="SvgjsG1007" transform="matrix(1.747946307781483,0,0,1.747946307781483,-37.397312055131145,-6.9673140895031676)">
	
		<linearGradient id="SVGID_1_" gradientUnits="userSpaceOnUse" x1="-123.3979" y1="101.5842" x2="-122.9542" y2="101.5842" gradientTransform="matrix(174.7946 0 0 281.1776 21590.7363 -28538.7871)">
		<stop  offset="0" style="stop-color:#FBB040"/>
		<stop  offset="1" style="stop-color:#F9ED32"/>
	</linearGradient>
	<path class="st0" d="M45,11.3H44h-2.4h-1.4V10c0-3.3-2.8-6-6.1-6s-6.1,2.7-6.1,6.1v1.3h-1.4h-3.5l-1.8,23c0,2.1,1.7,3.8,3.8,3.8
		h0.5v-14c0-2.3,1.9-4.1,4.1-4.1h8.5c2.3,0,4.1,1.9,4.1,4.1v2.1v11v0.8H43c2.1,0,3.8-1.7,3.8-3.8L45,11.3z M28.9,15.7
		c-0.5,0-0.9-0.4-0.9-0.9c0-0.5,0.4-0.9,0.9-0.9c0.5,0,0.9,0.4,0.9,0.9C29.8,15.3,29.4,15.7,28.9,15.7z M29.8,11.3V10l0,0
		c0-2.4,1.9-4.3,4.3-4.3c2.4,0,4.3,1.9,4.3,4.3l0,0v1.3h-4.3H29.8z M39.3,15.7c-0.5,0-0.9-0.4-0.9-0.9c0-0.5,0.4-0.9,0.9-0.9
		c0.5,0,0.9,0.4,0.9,0.9C40.2,15.3,39.8,15.7,39.3,15.7z M40.9,37.3v-11v-2.1c0-1.4-1.1-2.5-2.5-2.5h-8.5c-1.4,0-2.5,1.1-2.5,2.5
		v18.2c0,1.4,1.1,2.5,2.5,2.5h8.5c1.4,0,2.5-1.1,2.5-2.5L40.9,37.3L40.9,37.3z M35.2,43.8h-2.4c-0.4,0-0.7-0.3-0.7-0.7
		c0-0.4,0.3-0.7,0.7-0.7h2.4c0.4,0,0.7,0.3,0.7,0.7C35.9,43.5,35.6,43.8,35.2,43.8z M39.5,25.8v0.5v11v1.3v2.3
		c0,0.4-0.3,0.6-0.6,0.6h-9.6c-0.4,0-0.6-0.3-0.6-0.6V25.7c0-0.4,0.3-0.6,0.6-0.6h9.6C39.3,25.1,39.5,25.4,39.5,25.8
		C39.5,25.7,39.5,25.8,39.5,25.8z M35.8,35.6c-0.3,0.3-0.6,0.5-1,0.6c-0.2,0-0.3,0.1-0.2,0.3c0,0.2,0,0.4,0,0.5
		c0,0.2-0.1,0.2-0.2,0.2c-0.2,0-0.4,0-0.6,0c-0.2,0-0.2-0.1-0.2-0.3c0-0.1,0-0.3,0-0.4c0-0.3,0-0.3-0.3-0.4c-0.4,0-0.7-0.1-1-0.3
		c-0.3-0.1-0.3-0.2-0.2-0.4c0-0.2,0.1-0.4,0.2-0.6c0.1-0.2,0.1-0.3,0.4-0.1c0.4,0.2,0.7,0.3,1.1,0.4c0.3,0,0.5,0,0.7-0.1
		c0.4-0.2,0.5-0.7,0.1-1c-0.1-0.1-0.3-0.2-0.4-0.2c-0.4-0.2-0.8-0.3-1.2-0.5c-0.6-0.4-0.9-0.8-0.9-1.6c0-0.8,0.5-1.3,1.2-1.6
		c0.3-0.1,0.3-0.1,0.3-0.4c0-0.1,0-0.2,0-0.3c0-0.2,0-0.3,0.3-0.3c0.1,0,0.1,0,0.2,0c0.5,0,0.5,0,0.5,0.5c0,0.4,0,0.4,0.4,0.4
		c0.3,0,0.5,0.1,0.8,0.2c0.1,0,0.2,0.2,0.1,0.3c0,0.2-0.1,0.4-0.2,0.7c0,0.2-0.1,0.2-0.3,0.1c-0.4-0.2-0.8-0.3-1.2-0.3
		c-0.1,0-0.2,0-0.4,0.1c-0.4,0.2-0.4,0.6-0.1,0.8c0.2,0.1,0.4,0.2,0.5,0.3c0.4,0.1,0.7,0.3,1,0.4C36.3,33.4,36.5,34.7,35.8,35.6z"/>
</g>
<g id="SvgjsG1008" transform="matrix(1.8583907180280006,0,0,1.8583907180280006,118.51328795726745,48.10983368883298)">
	
		<linearGradient id="SVGID_2_" gradientUnits="userSpaceOnUse" x1="-243.9166" y1="97.2492" x2="-242.9166" y2="97.2492" gradientTransform="matrix(371.6781 0 0 49.5248 90626.4297 -4826.2695)">
		<stop  offset="0" style="stop-color:#FBB040"/>
		<stop  offset="1" style="stop-color:#F9ED32"/>
	</linearGradient>
	<path class="st1" d="M-22.1-17.1v2.7h-3.5v11.3h-2.9v-11.3H-32v-2.7H-22.1z M-17.4-17.2v2.4h-2.9v-2.4H-17.4z M-17.4-13.5v10.4
		h-2.9v-10.4H-17.4z M-10.2-13.7c2.4,0,5.6,1.8,5,6.4h-7.6c0.4,1.3,1.4,2,2.8,2c1.3,0,1.8-0.3,2.5-0.7l1.6,1.5
		c-0.9,0.9-2.2,1.6-4.2,1.6c-2.6,0-5.6-1.8-5.6-5.4S-12.6-13.7-10.2-13.7z M-10.2-11.2c-1,0-2.1,0.6-2.5,1.9h5
		C-8-10.6-9.2-11.2-10.2-11.2z M2.8-13.7c2,0,3.9,1.3,3.9,4.6v6H3.8v-5.8c0-1.7-0.7-2.3-1.8-2.3c-1.5,0-2.4,1.4-2.6,2.2v5.9h-2.9
		v-10.4h2.9v1.9C-0.3-12.1,0.8-13.7,2.8-13.7z M16.4-17.2h2.8v5.3v8.8h-2.9v-1.3c-0.1,0.4-1.1,1.5-2.9,1.5c-2.4,0-5.1-1.7-5.1-5.4
		c0-3.6,2.8-5.4,5.1-5.4c1.8,0,2.8,1.1,2.9,1.3C16.4-12.3,16.4-17.2,16.4-17.2z M13.9-5.4c1.4,0,2.6-1,2.6-2.9s-1.2-2.8-2.6-2.8
		c-1.4,0-2.8,1-2.8,2.8C11.1-6.4,12.4-5.4,13.9-5.4z M29-13.5h2.9v10.4H29v-1.3c-0.1,0.4-1.1,1.5-2.9,1.5c-2.4,0-5.1-1.7-5.1-5.4
		c0-3.6,2.8-5.4,5.1-5.4c1.8,0,2.8,1.1,2.9,1.3C29-12.3,29-13.5,29-13.5z M26.5-5.4c1.4,0,2.6-1,2.6-2.9s-1.2-2.8-2.6-2.8
		c-1.4,0-2.8,1-2.8,2.8C23.7-6.4,25.1-5.4,26.5-5.4z M45.3-3.1l-1.1-2.5h-6.8l-1,2.5h-3.1l6.2-14h2.6l6.2,14H45.3z M38.5-8h4.7
		l-2.4-5.5L38.5-8z M59.2-13.5l-5.3,7.9h5v2.5h-9.6l5.3-7.9h-4.8v-2.5H59.2z M64.5-2.9c-2,0-3.9-1.3-3.9-4.6v-6h2.9v5.8
		c0,1.7,0.7,2.3,1.8,2.3c1.5,0,2.4-1.4,2.6-2.2v-5.9h2.9v10.4h-2.9V-5C67.6-4.5,66.5-2.9,64.5-2.9z M75.6-17.2v14.1h-2.9v-14.1
		C72.8-17.2,75.6-17.2,75.6-17.2z"/>
</g>
<g id="SvgjsG1009" transform="matrix(0.4764343610544571,0,0,0.4764343610544571,119.8856560895757,93.38914037387913)">
	
		<linearGradient id="SVGID_3_" gradientUnits="userSpaceOnUse" x1="-1791.4344" y1="-607.4514" x2="-1790.4344" y2="-607.4514" gradientTransform="matrix(76.2295 0 0 3.3776 136432.2656 1974.6801)">
		<stop  offset="0" style="stop-color:#FBB040"/>
		<stop  offset="1" style="stop-color:#F9ED32"/>
	</linearGradient>
	<path class="st2" d="M-116.9-84.2v1.2h-4.8v13h-1.3v-13h-4.9v-1.2H-116.9z M-99.4-84.2v8.5c0,1.5,0.3,2.7,1,3.5
		c0.6,0.8,1.6,1.3,2.9,1.3c2.5,0,3.8-1.7,3.8-5v-8.3h1.3v8.6c0,1.9-0.4,3.3-1.3,4.3s-2.2,1.5-3.9,1.6c-1.7,0-3-0.5-3.8-1.5
		c-0.9-1-1.3-2.4-1.3-4.3v-8.7C-100.7-84.2-99.4-84.2-99.4-84.2z M-49.1-84.5c1.6,0,2.9,0.6,3.9,1.8l-1.1,0.8
		c-0.8-1-1.7-1.4-2.8-1.4c-0.9,0-1.7,0.2-2.3,0.7c-0.6,0.5-0.9,1.1-0.9,2c0,0.7,0.2,1.3,0.7,1.8c0.4,0.4,1.2,0.8,2.3,1.1
		c1.4,0.4,2.4,0.8,2.9,1.1c0.5,0.3,0.8,0.7,1.1,1.2s0.4,1.1,0.4,1.8c0,1.1-0.4,2.1-1.2,2.8c-1,0.8-2,1.1-3.3,1.2
		c-2,0-3.6-0.7-4.6-2.1l1.3-0.8c0.7,1.2,1.8,1.8,3.2,1.8c0.9,0,1.7-0.3,2.3-0.8c0.6-0.5,0.9-1.2,0.9-2c0-0.5-0.1-0.9-0.3-1.1
		c-0.2-0.3-0.4-0.6-0.8-0.8c-0.3-0.2-0.8-0.4-1.3-0.6c-0.5-0.2-1.1-0.4-1.8-0.6c-1.1-0.3-1.9-0.8-2.4-1.5c-0.5-0.6-0.8-1.4-0.8-2.4
		c0-1.1,0.4-2.1,1.3-2.8C-51.5-84-50.4-84.5-49.1-84.5z M-25.9-84.2l5.2,11.9l5.2-11.9h1.9V-70h-1.5v-12.5l0,0L-20.5-70h-0.6
		l-5.5-12.5l0,0V-70h-1.3v-14.2H-25.9z M5.9-75h6.5l-3.2-7.8L5.9-75z M9.9-84.2l6,14.2h-1.5l-1.5-3.8H5.4L3.8-70H2.4l6.2-14.2H9.9z
		 M36.4-77.9c1,0,1.8-0.2,2.4-0.7c0.6-0.5,0.8-1.1,0.8-1.8c0-0.8-0.3-1.4-0.8-1.8c-0.5-0.5-1.4-0.7-2.4-0.7h-2.9v5H36.4z M36-84.2
		c3.3,0,4.9,1.2,4.9,3.7c0,2.1-1.2,3.3-3.6,3.6l4.1,6.8h-1.5l-4-6.7h-2.5v6.8h-1.3v-14.2H36z M67.5-84.2v1.2h-4.8v13h-1.3v-13h-4.8
		v-1.2H67.5z M88.3-77.9c0.9,0,1.6-0.2,2.1-0.6s0.8-1,0.8-1.9c0-0.8-0.3-1.4-0.8-1.9c-0.5-0.4-1.2-0.7-2.1-0.7h-3v5L88.3-77.9
		L88.3-77.9z M88-84.2c1.4,0,2.6,0.3,3.4,1c0.8,0.7,1.2,1.6,1.2,2.8c0,1.1-0.4,2-1.2,2.7c-0.8,0.7-1.8,1-3,1h-3.1v6.7h-1.4v-14.2H88
		z M111-84.2v6.2h7.9v-6.2h1.3V-70h-1.3v-6.7H111v6.7h-1.3v-14.2H111z M138.7-77.1c0,1.8,0.6,3.3,1.7,4.5c1.1,1.2,2.6,1.8,4.3,1.8
		c1.8,0,3.2-0.6,4.3-1.8c1.1-1.2,1.6-2.7,1.7-4.5c0-1.8-0.5-3.3-1.6-4.5c-1.1-1.2-2.6-1.7-4.4-1.8c-1.8,0-3.2,0.6-4.3,1.8
		C139.3-80.4,138.7-78.9,138.7-77.1L138.7-77.1z M144.7-84.5c1.4,0,2.7,0.3,3.8,1c1.1,0.7,2,1.5,2.6,2.7c0.6,1.2,0.9,2.4,0.9,3.8
		c0,2.2-0.7,4-2.1,5.3c-1.4,1.4-3.1,2.1-5.3,2.1c-2.1,0-3.9-0.7-5.2-2.1c-1.3-1.4-2-3.2-2.1-5.4c0-2.2,0.7-3.9,2-5.3
		S142.5-84.5,144.7-84.5L144.7-84.5z M170.9-84.2l8.6,12.4l0,0v-12.4h1.3V-70h-1.7l-8.6-12.4l0,0V-70h-1.3v-14.2H170.9z M207.6-84.2
		v1.2h-7.3v5h6.9v1.2h-6.9v5.5h7.7v1.3h-9v-14.2H207.6z"/>
</g>
</svg>
